<svg width="49" height="120" viewBox="0 0 49 120" fill="none" xmlns="http://www.w3.org/2000/svg">
<path d="M4.37674 69.4729L3.03904 70.1516L4.37674 69.4729ZM48.3105 113.532C48.554 114.324 48.1096 115.163 47.3178 115.407L34.4143 119.375C33.6225 119.619 32.7831 119.174 32.5396 118.383C32.2961 117.591 32.7405 116.751 33.5324 116.508L45.0021 112.98L41.4743 101.51C41.2308 100.719 41.6753 99.8793 42.4671 99.6358C43.2589 99.3922 44.0982 99.8367 44.3418 100.629L48.3105 113.532ZM36.089 1.99996C37.0632 3.14056 37.0633 3.14047 37.0632 3.14053C37.063 3.14075 37.0628 3.14095 37.0622 3.14139C37.0612 3.14226 37.0595 3.14373 37.0571 3.14579C37.0523 3.14991 37.0448 3.15639 37.0345 3.16522C37.014 3.18288 36.9827 3.20992 36.9409 3.24615C36.8575 3.3186 36.7325 3.42779 36.5691 3.57217C36.2423 3.86095 35.7622 4.29043 35.1546 4.84833C33.9392 5.9643 32.215 7.59305 30.1888 9.63629C26.1327 13.7264 20.8836 19.4601 16.0848 26.0524C11.2781 32.6556 6.97229 40.0539 4.73716 47.4752C2.50591 54.8836 2.36856 62.1991 5.71444 68.7943L3.03904 70.1516C-0.762811 62.6577 -0.509999 54.4945 1.86461 46.6101C4.23533 38.7385 8.75103 31.0297 13.6594 24.2869C18.5755 17.5333 23.9349 11.6821 28.0586 7.52385C30.1222 5.44291 31.8807 3.78161 33.1255 2.63857C33.7481 2.06696 34.2424 1.6247 34.5826 1.32411C34.7527 1.17381 34.8842 1.05891 34.974 0.98094C35.0189 0.941956 35.0534 0.912205 35.077 0.891878C35.0888 0.881714 35.0979 0.873907 35.1042 0.868478C35.1074 0.865765 35.1098 0.863646 35.1116 0.862126C35.1125 0.861366 35.1133 0.860673 35.1138 0.860294C35.1144 0.859752 35.1148 0.85936 36.089 1.99996ZM5.71444 68.7943C13.2262 83.6009 23.7005 94.5752 32.3162 101.855C36.621 105.492 40.4523 108.199 43.2015 109.993C44.5757 110.89 45.6786 111.558 46.4338 112C46.8114 112.22 47.102 112.385 47.296 112.493C47.393 112.547 47.4659 112.586 47.5134 112.612C47.5372 112.625 47.5546 112.634 47.5655 112.64C47.571 112.643 47.5749 112.645 47.5771 112.646C47.5782 112.647 47.5789 112.647 47.5792 112.648C47.5793 112.648 47.5792 112.648 47.5793 112.648C47.5791 112.647 47.5788 112.647 46.8768 113.973C46.1748 115.299 46.1743 115.298 46.1737 115.298C46.1733 115.298 46.1726 115.297 46.1719 115.297C46.1705 115.296 46.1688 115.295 46.1666 115.294C46.1622 115.292 46.1561 115.289 46.1484 115.284C46.1331 115.276 46.1112 115.264 46.0829 115.249C46.0264 115.218 45.9445 115.174 45.8382 115.115C45.6257 114.996 45.3161 114.821 44.919 114.589C44.1247 114.124 42.98 113.431 41.5619 112.505C38.7262 110.654 34.7932 107.875 30.3801 104.146C21.56 96.694 10.7843 85.4183 3.03904 70.1516L5.71444 68.7943Z" fill="white"/>
</svg>
