<svg width="49" height="120" viewBox="0 0 49 120" fill="none" xmlns="http://www.w3.org/2000/svg">
<path d="M44.3555 69.4729L45.6932 70.1516L44.3555 69.4729ZM0.421707 113.532C0.178166 114.324 0.622635 115.163 1.41446 115.407L14.3179 119.375C15.1097 119.619 15.9491 119.174 16.1926 118.383C16.4361 117.591 15.9917 116.751 15.1999 116.508L3.73011 112.98L7.25787 101.51C7.50141 100.719 7.05694 99.8793 6.26512 99.6358C5.4733 99.3922 4.63397 99.8367 4.39043 100.629L0.421707 113.532ZM12.6432 1.99996C11.669 3.14056 11.6689 3.14047 11.669 3.14053C11.6692 3.14075 11.6695 3.14095 11.67 3.14139C11.671 3.14226 11.6727 3.14373 11.6751 3.14579C11.6799 3.14991 11.6875 3.15639 11.6977 3.16522C11.7182 3.18288 11.7495 3.20992 11.7913 3.24615C11.8747 3.3186 11.9997 3.42779 12.1631 3.57217C12.4899 3.86095 12.9701 4.29043 13.5776 4.84833C14.793 5.9643 16.5172 7.59305 18.5434 9.63629C22.5995 13.7264 27.8486 19.4601 32.6474 26.0524C37.4541 32.6556 41.7599 40.0539 43.9951 47.4752C46.2263 54.8836 46.3637 62.1991 43.0178 68.7943L45.6932 70.1516C49.495 62.6577 49.2422 54.4945 46.8676 46.6101C44.4969 38.7385 39.9812 31.0297 35.0728 24.2869C30.1567 17.5333 24.7973 11.6821 20.6736 7.52385C18.61 5.44291 16.8515 3.78161 15.6067 2.63857C14.9842 2.06696 14.4898 1.6247 14.1496 1.32411C13.9795 1.17381 13.848 1.05891 13.7582 0.98094C13.7133 0.941956 13.6788 0.912205 13.6552 0.891878C13.6434 0.881714 13.6343 0.873907 13.628 0.868478C13.6248 0.865765 13.6224 0.863646 13.6206 0.862126C13.6197 0.861366 13.6189 0.860673 13.6185 0.860294C13.6178 0.859752 13.6174 0.85936 12.6432 1.99996ZM43.0178 68.7943C35.506 83.6009 25.0317 94.5752 16.416 101.855C12.1112 105.492 8.27989 108.199 5.53074 109.993C4.15649 110.89 3.05361 111.558 2.2984 112C1.92083 112.22 1.63025 112.385 1.43622 112.493C1.33921 112.547 1.26634 112.586 1.21881 112.612C1.19504 112.625 1.17762 112.634 1.16667 112.64C1.1612 112.643 1.15735 112.645 1.15514 112.646C1.15403 112.647 1.15334 112.647 1.15306 112.648C1.15291 112.648 1.15301 112.648 1.15294 112.648C1.15314 112.647 1.15345 112.647 1.85543 113.973C2.5574 115.299 2.55792 115.298 2.55853 115.298C2.55888 115.298 2.5596 115.297 2.56028 115.297C2.56166 115.296 2.56345 115.295 2.56565 115.294C2.57005 115.292 2.57611 115.289 2.58378 115.284C2.59915 115.276 2.62103 115.264 2.64927 115.249C2.70577 115.218 2.78774 115.174 2.89398 115.115C3.10647 114.996 3.41609 114.821 3.81324 114.589C4.60748 114.124 5.75216 113.431 7.17033 112.505C10.006 110.654 13.939 107.875 18.3521 104.146C27.1722 96.694 37.9479 85.4183 45.6932 70.1516L43.0178 68.7943Z" fill="white"/>
</svg>
