<svg width="174" height="72" viewBox="0 0 174 72" fill="none" xmlns="http://www.w3.org/2000/svg">
<path fill-rule="evenodd" clip-rule="evenodd" d="M38.1721 6.71333C36.8266 9.47086 35.7512 12.4991 35.6571 12.7641L35.6555 12.7687C30.5172 27.2425 27.4274 42.8145 24.5477 58.3314C27.3364 58.1647 30.1267 57.992 32.918 57.8193C39.9751 57.3825 47.0384 56.9453 54.0974 56.6044C59.9597 56.3213 65.8194 56.0701 71.6774 55.8457C71.0372 48.3908 70.3527 40.9731 69.5312 33.5153C69.4592 32.8614 69.4038 31.5974 69.3353 30.033C69.3117 29.4934 69.2865 28.918 69.2585 28.3196C69.1467 25.9302 68.9872 23.0557 68.706 20.2414C68.4235 17.4133 68.0242 14.7118 67.4496 12.6454C67.1622 11.6115 66.8463 10.7944 66.5117 10.2133C66.1748 9.62807 65.8763 9.37975 65.6457 9.29395C65.3668 9.19019 64.9101 9.21209 64.1876 9.55773C63.4805 9.896 62.6572 10.4773 61.7267 11.242C60.8019 12.002 59.8191 12.9025 58.7874 13.8523L58.6429 13.9853C57.6641 14.8867 56.6456 15.8246 55.6317 16.6815C53.5597 18.433 51.2806 20.0535 49.1666 20.2064C48.0519 20.287 46.9632 19.9628 46.0095 19.053C45.0792 18.1656 44.365 16.8049 43.833 15C43.5669 14.0972 43.4187 12.8728 43.2933 11.6595C43.2563 11.3013 43.2209 10.9386 43.1852 10.5731C43.094 9.63952 43.001 8.68721 42.8752 7.74174C42.7006 6.42938 42.4755 5.24107 42.149 4.30026C41.822 3.35778 41.4482 2.8219 41.0557 2.57265C41.0402 2.57529 41.0067 2.5838 40.9523 2.61133C40.7843 2.69632 40.5321 2.9034 40.2059 3.29878C39.5588 4.08326 38.8509 5.32195 38.1721 6.71333ZM73.8195 55.7649C73.1738 48.2366 72.4823 40.7309 71.6504 33.1776C71.5904 32.6325 71.5424 31.54 71.4766 30.0414C71.4518 29.4748 71.4243 28.8502 71.3928 28.1751C71.2803 25.7706 71.1178 22.8312 70.8284 19.9346C70.5404 17.0516 70.1207 14.1453 69.4769 11.8298C69.1553 10.6728 68.7622 9.60558 68.2691 8.74921C67.7784 7.89698 67.1305 7.15477 66.2774 6.83734C65.3174 6.48021 64.3079 6.73283 63.3976 7.16834C62.4718 7.61122 61.4957 8.31766 60.5209 9.11872C59.5406 9.92434 58.5124 10.8674 57.4882 11.8103L57.3548 11.9331C56.3665 12.8432 55.3797 13.7518 54.4027 14.5776C52.3054 16.3504 50.479 17.5354 49.0384 17.6396C48.3759 17.6875 47.825 17.503 47.3377 17.0382C46.827 16.551 46.2988 15.6711 45.8478 14.1408C45.6721 13.5444 45.5444 12.5979 45.4147 11.3425C45.3813 11.019 45.348 10.6779 45.3135 10.325C45.2206 9.37386 45.1194 8.33784 44.986 7.33537C44.8027 5.95773 44.546 4.53235 44.1218 3.30981C43.7014 2.09829 43.06 0.922382 42.0235 0.279711C41.3649 -0.128663 40.6872 -0.0441567 40.1235 0.241007C39.5886 0.51165 39.1061 0.981318 38.6885 1.48758C37.8481 2.50639 37.0317 3.97054 36.3285 5.41174C34.9118 8.31513 33.7935 11.466 33.6916 11.7531L33.6898 11.7582C28.3891 26.6897 25.2479 42.7265 22.3332 58.4624C15.2327 58.8777 8.13662 59.244 1.04131 59.464C0.451199 59.4823 -0.0148478 60.0726 0.000361938 60.7824C0.0155716 61.4923 0.506279 62.0529 1.09639 62.0346C8.01977 61.8199 14.9392 61.4665 21.8524 61.0649C21.7809 61.4522 21.7095 61.8393 21.6382 62.2262C21.1317 64.9739 20.6274 67.7092 20.1143 70.4295C19.9837 71.122 20.3445 71.8107 20.9201 71.9678C21.4958 72.125 22.0684 71.691 22.199 70.9985C22.7134 68.2712 23.2193 65.5269 23.7262 62.7773C23.8394 62.1633 23.9527 61.5491 24.0661 60.9347C27.0601 60.7567 30.0518 60.5715 33.042 60.3864C40.093 59.95 47.1361 59.5141 54.1832 59.1737C60.0892 58.8885 65.9932 58.6357 71.8959 58.4101C71.9888 59.5084 72.0809 60.6076 72.1726 61.708C72.2315 62.4145 72.7554 62.9298 73.3428 62.859C73.9301 62.7882 74.3585 62.158 74.2996 61.4515C74.2128 60.41 74.1256 59.3694 74.0378 58.3294C103.789 57.2248 133.503 56.7944 163.283 56.363C166.503 56.3163 169.723 56.2697 172.944 56.2222C173.535 56.2135 174.007 55.6308 174 54.9208C173.993 54.2108 173.508 53.6423 172.918 53.651C169.697 53.6985 166.477 53.7451 163.257 53.7918C133.429 54.2238 103.643 54.6553 73.8195 55.7649Z" fill="white"/>
</svg>
